<?xml version="1.0" encoding="UTF-8" standalone="no"?>
<svg
   xmlns:dc="http://purl.org/dc/elements/1.1/"
   xmlns:cc="http://creativecommons.org/ns#"
   xmlns:rdf="http://www.w3.org/1999/02/22-rdf-syntax-ns#"
   xmlns:svg="http://www.w3.org/2000/svg"
   xmlns="http://www.w3.org/2000/svg"
   xmlns:sodipodi="http://sodipodi.sourceforge.net/DTD/sodipodi-0.dtd"
   xmlns:inkscape="http://www.inkscape.org/namespaces/inkscape"
   sodipodi:docname="time.svg"
   inkscape:version="1.0 (4035a4fb49, 2020-05-01)"
   id="svg8"
   version="1.1"
   viewBox="0 0 16.933333 16.933334"
   height="64"
   width="64"
   inkscape:export-filename="C:\Users\kollin\Documents\Apps\Wordz\src\img\time.png"
   inkscape:export-xdpi="96"
   inkscape:export-ydpi="96">
  <defs
     id="defs2" />
  <sodipodi:namedview
     inkscape:window-maximized="1"
     inkscape:window-y="-8"
     inkscape:window-x="1912"
     inkscape:window-height="1017"
     inkscape:window-width="1920"
     units="px"
     showgrid="false"
     inkscape:document-rotation="0"
     inkscape:current-layer="g26"
     inkscape:document-units="px"
     inkscape:cy="34.955878"
     inkscape:cx="28.604152"
     inkscape:zoom="11.313709"
     inkscape:pageshadow="2"
     inkscape:pageopacity="0.0"
     borderopacity="1.0"
     bordercolor="#666666"
     pagecolor="#ffffff"
     id="base" />
  <metadata
     id="metadata5">
    <rdf:RDF>
      <cc:Work
         rdf:about="">
        <dc:format>image/svg+xml</dc:format>
        <dc:type
           rdf:resource="http://purl.org/dc/dcmitype/StillImage" />
        <dc:title />
      </cc:Work>
    </rdf:RDF>
  </metadata>
  <g
     id="layer1"
     inkscape:groupmode="layer"
     inkscape:label="Layer 1">
    <g
       transform="translate(-1.4410342,-2.0316221)"
       id="g26">
      <path
         sodipodi:nodetypes="cssscsscccsscscsssccccssscscccsscsssccsssscsssssscsccsccccssscsscssssccccssssscscscsccssscsscscscccssscsscssscc"
         id="path28"
         d="M 8.7710964,18.914566 C 5.9977994,18.508991 3.6221923,16.822831 2.3791177,14.377665 1.7698062,13.179128 1.4428105,11.835356 1.4428105,10.529951 c 0,-0.9871508 -0.09284,-0.874264 1.063774,-1.2934453 0.5539953,-0.2007785 1.0125934,-0.360098 1.0191083,-0.3540414 0.00651,0.00604 -0.024209,0.1731903 -0.068275,0.3714084 -0.062122,0.2794404 -0.079851,0.5651843 -0.078913,1.2720513 0.0011,0.828606 0.012367,0.958766 0.1236587,1.42882 0.6267318,2.646964 2.7244308,4.613613 5.3813699,5.045175 0.527063,0.08562 1.5239296,0.08562 2.0509906,0 1.504373,-0.244354 2.929177,-1.029697 3.899738,-2.149516 0.761654,-0.878784 1.278345,-1.920053 1.523849,-3.070956 0.117393,-0.55029 0.117393,-2.002337 0,-2.55263 C 15.796408,6.5936053 13.830616,4.6259774 11.183512,4.0473865 10.632574,3.9269652 9.1861144,3.9267593 8.6369374,4.0470221 7.5493499,4.2851942 6.5956264,4.7468559 5.7328163,5.4528001 5.5513161,5.6013018 5.4028159,5.7399302 5.4028159,5.7608626 c 0,0.020933 0.2267021,0.228897 0.5037819,0.4621436 C 6.376745,6.6187771 6.4033359,6.6498468 6.3048741,6.6883837 6.0177318,6.8007614 1.9651966,8.2603589 1.9584236,8.2538355 1.9453986,8.2413296 2.7666396,3.6466978 2.7851888,3.6281224 2.7945888,3.6186503 3.0489929,3.8202991 3.3504165,4.0762146 3.8984617,4.5415149 3.8984617,4.5415149 4.2436868,4.2229535 4.890155,3.6264176 5.7150854,3.0889319 6.5390069,2.7274326 8.2046224,1.9966367 10.140985,1.8343928 11.946246,2.2743713 c 3.763858,0.917327 6.433957,4.3443493 6.428112,8.2503567 -0.0055,3.652098 -2.346455,6.886669 -5.810785,8.028828 -0.895022,0.295082 -1.467185,0.388631 -2.495234,0.407974 -0.5808126,0.01099 -1.0068366,-0.0044 -1.2972426,-0.04696 z m 0.933105,-2.783275 c -0.352263,-0.12288 -0.51686,-0.504607 -0.356695,-0.827244 0.299627,-0.603569 1.1825536,-0.414527 1.1729136,0.251132 -0.0064,0.446645 -0.397045,0.722329 -0.8162186,0.576112 z M 7.2072378,15.470834 C 6.6526809,15.302407 6.624975,14.533912 7.1651488,14.303417 c 0.1920485,-0.08194 0.3060648,-0.07885 0.500647,0.01363 0.4128546,0.196193 0.4514886,0.848956 0.063612,1.074794 -0.1636631,0.09528 -0.3671595,0.126082 -0.5221705,0.07901 z m 4.9534122,-0.04466 c -0.2276,-0.112816 -0.339947,-0.296077 -0.339725,-0.554129 2.27e-4,-0.259958 0.123443,-0.454134 0.35436,-0.558413 0.245479,-0.110869 0.466778,-0.06829 0.684659,0.131661 0.15676,0.143867 0.167019,0.170071 0.167019,0.426609 0,0.228226 -0.01877,0.293705 -0.113792,0.39683 -0.120193,0.130451 -0.352034,0.248528 -0.487848,0.248467 -0.04461,-1.8e-5 -0.163715,-0.04099 -0.26467,-0.09103 z M 5.2853102,13.606656 c -0.1458939,-0.06292 -0.3308048,-0.308362 -0.3633995,-0.482359 -0.037991,-0.202803 0.1099707,-0.51934 0.2935127,-0.627914 0.1757491,-0.103977 0.4925283,-0.100561 0.6689673,0.0072 0.1474935,0.09007 0.2922192,0.339473 0.2922192,0.503578 0,0.148715 -0.1117044,0.378386 -0.2429935,0.499605 -0.129234,0.119314 -0.4784961,0.173146 -0.6483062,0.0999 z m 8.7430338,-0.0018 c -0.24009,-0.09946 -0.408519,-0.422774 -0.362459,-0.695789 0.03296,-0.195389 0.23784,-0.429977 0.414242,-0.474314 0.474545,-0.119278 0.919741,0.305735 0.791031,0.755162 -0.102052,0.35633 -0.505171,0.554799 -0.842814,0.414941 z M 7.055291,12.510779 c -0.080002,-0.04885 -0.1791338,-0.140288 -0.2202933,-0.203196 -0.099711,-0.152398 -0.1005049,-0.479488 -0.00157,-0.647212 0.05145,-0.08722 0.4452636,-0.373935 1.121854,-0.816756 0.8649257,-0.566083 1.0426437,-0.700446 1.0429867,-0.788536 8.29e-4,-0.212398 0.274129,-4.5030112 0.298692,-4.6892172 0.04825,-0.3657374 0.41904,-0.6065941 0.7801306,-0.5067489 0.208583,0.057675 0.41316,0.2705376 0.444264,0.4622509 0.01289,0.079683 0.09664,1.2974363 0.186024,2.7061168 0.131821,2.0775544 0.164621,2.2482984 0.008,2.8107584 -0.463121,0.363537 -0.476093,0.362977 -0.7643976,0.554489 -0.167311,0.08352 -0.669722,0.3128 -1.312747,0.637426 -1.2046509,0.608158 -1.3177322,0.642497 -1.5828262,0.480625 z M 4.5835044,11.059033 C 4.1265422,10.807788 4.1445228,10.155986 4.6141554,9.947949 4.9415381,9.802923 5.2631843,9.915149 5.4264845,10.231397 5.6936328,10.748748 5.092534,11.338905 4.5835044,11.059033 Z m 10.1057476,0.0046 c -0.426626,-0.220559 -0.48362,-0.763169 -0.111,-1.056699 0.184675,-0.145476 0.387295,-0.164582 0.625642,-0.05899 0.330974,0.146615 0.459746,0.528103 0.28953,0.857737 -0.146264,0.283247 -0.522077,0.403795 -0.80418,0.257956 z M 5.1893223,8.4939699 C 4.9850676,8.3629407 4.8704031,8.0539514 4.9398709,7.8217549 5.1037385,7.2740285 5.8645735,7.1918084 6.1034883,7.6960103 6.1968967,7.8931367 6.1960614,8.0552168 6.1006013,8.2566798 5.9496709,8.575199 5.4989237,8.6925713 5.1893258,8.4939726 Z m 8.7443437,0.00874 c -0.147495,-0.090074 -0.29222,-0.3394715 -0.29222,-0.5035754 0,-0.3926374 0.413265,-0.7188189 0.790575,-0.623984 0.181775,0.045695 0.387117,0.2492475 0.444327,0.4404704 0.07269,0.2429448 -0.04125,0.5487981 -0.253345,0.6800655 -0.19136,0.1184431 -0.501718,0.1216028 -0.689337,0.007 z M 7.0768676,6.6649172 C 6.6058997,6.3915116 6.7017891,5.6857666 7.231499,5.5268333 7.37199,5.484681 7.4391499,5.4894875 7.6070931,5.553718 8.1040584,5.7437839 8.1412554,6.4632845 7.6657951,6.6892282 7.4521661,6.7907543 7.2814857,6.7837082 7.0768663,6.6649163 Z m 5.0680374,0.022498 C 11.844607,6.539264 11.723152,6.1016041 11.899415,5.8027884 c 0.107459,-0.1821788 0.42463,-0.3319572 0.623736,-0.2945506 0.618927,0.1162776 0.709198,0.9473672 0.129753,1.1946194 -0.190917,0.081463 -0.319491,0.077563 -0.508001,-0.015437 z"
         style="fill:#000000;fill-opacity:1;stroke-width:0.0455499" />
    </g>
  </g>
</svg>
